<?xml version="1.0" encoding="iso-8859-1"?>
<!-- Generator: Adobe Illustrator 18.1.1, SVG Export Plug-In . SVG Version: 6.00 Build 0)  -->
<svg version="1.1" id="Capa_1" xmlns="http://www.w3.org/2000/svg" xmlns:xlink="http://www.w3.org/1999/xlink" x="0px" y="0px"
	 viewBox="0 0 358.012 358.012" style="enable-background:new 0 0 358.012 358.012;" xml:space="preserve">
<g>
	<path style="fill:#1E90FF;" d="M179.006,0C80.141,0,0,80.141,0,179.006s80.141,179.006,179.006,179.006
		s179.006-80.141,179.006-179.006S277.871,0,179.006,0z M239.033,268.288h-11.934v-104.45c0-23.593-19.201-42.794-42.794-42.794
		c-23.599,0-42.794,19.201-42.794,42.794v8.58h-0.042l-0.352,73.005l34.369-34.363l8.437,8.437l-48.797,48.797l-47.962-47.962
		l8.437-8.437l33.588,33.588l0.376-79.091h0.012v-2.548c0-30.18,24.554-54.728,54.728-54.728c30.18,0,54.728,24.548,54.728,54.728
		C239.033,163.844,239.033,268.288,239.033,268.288z"/>
</g>
<g>
</g>
<g>
</g>
<g>
</g>
<g>
</g>
<g>
</g>
<g>
</g>
<g>
</g>
<g>
</g>
<g>
</g>
<g>
</g>
<g>
</g>
<g>
</g>
<g>
</g>
<g>
</g>
<g>
</g>
</svg>
